<?xml version="1.0" standalone="no"?>
<!DOCTYPE svg PUBLIC "-//W3C//DTD SVG 20010904//EN"
 "http://www.w3.org/TR/2001/REC-SVG-20010904/DTD/svg10.dtd">
<svg version="1.0" xmlns="http://www.w3.org/2000/svg"
 width="430.000000pt" height="430.000000pt" viewBox="0 0 430.000000 430.000000"
 preserveAspectRatio="xMidYMid meet">

<g transform="translate(0.000000,430.000000) scale(0.100000,-0.100000)"
fill="#000000" stroke="none">
<path d="M2009 4285 c-224 -35 -364 -168 -419 -396 -13 -53 -20 -119 -20 -179
l0 -94 -72 73 c-266 268 -587 257 -868 -28 -92 -93 -138 -163 -171 -257 -18
-49 -20 -76 -17 -159 7 -149 56 -253 188 -397 l59 -65 -117 -6 c-192 -10 -295
-50 -398 -153 -115 -115 -167 -261 -168 -469 -1 -199 41 -320 144 -425 103
-105 217 -149 407 -157 l121 -6 -62 -62 c-73 -73 -130 -156 -166 -240 -22 -53
-25 -74 -25 -180 0 -107 3 -127 26 -183 43 -100 89 -169 172 -258 138 -146
252 -203 410 -204 148 0 277 57 415 185 l72 67 0 -80 c0 -247 97 -434 276
-529 189 -101 479 -108 661 -17 174 87 272 276 273 523 l0 94 68 -70 c157
-164 343 -228 532 -183 111 26 242 104 338 202 77 80 117 135 156 217 39 85
48 217 21 316 -23 87 -89 196 -171 283 l-69 72 88 0 c254 0 436 98 527 284 62
126 75 188 74 351 -1 122 -4 150 -26 217 -14 43 -40 100 -58 128 -93 145 -280
230 -506 230 l-88 0 55 53 c82 77 125 135 166 223 32 70 37 90 41 180 5 119
-9 178 -71 298 -30 58 -65 104 -127 167 -156 159 -277 216 -444 207 -145 -8
-267 -69 -400 -203 l-53 -53 -5 122 c-13 321 -168 502 -481 561 -94 18 -172
18 -288 0z m286 -126 c180 -32 305 -143 346 -309 19 -75 17 -255 -5 -363 -36
-184 -129 -438 -240 -657 l-63 -125 -39 5 c-60 8 -245 6 -285 -3 l-37 -8 -31
66 c-93 199 -193 505 -227 695 -21 118 -24 325 -5 400 41 165 146 271 296 299
106 19 180 19 290 0z m-1094 -419 c84 -29 133 -61 214 -144 165 -168 307 -431
430 -799 l44 -130 -57 -37 c-66 -43 -127 -107 -166 -173 -16 -26 -29 -47 -30
-47 -18 0 -315 129 -425 185 -213 108 -347 200 -467 319 -82 82 -108 116 -140
180 -37 75 -39 85 -39 170 0 80 4 98 28 146 41 81 105 158 176 216 66 53 173
112 225 125 60 14 146 9 207 -11z m2226 -46 c138 -69 272 -226 315 -367 45
-150 7 -282 -121 -419 -158 -169 -430 -321 -796 -444 l-159 -53 -29 47 c-40
65 -102 128 -168 171 l-57 37 58 145 c202 509 471 860 706 919 22 5 71 7 109
5 56 -3 85 -12 142 -41z m-2592 -1064 c185 -38 404 -119 637 -236 126 -63 130
-66 124 -92 -24 -105 -26 -211 -5 -292 5 -19 5 -37 1 -41 -18 -17 -262 -116
-406 -164 -352 -119 -647 -144 -825 -72 -155 63 -231 196 -232 407 -2 297 130
475 376 510 80 12 220 3 330 -20z m1438 -35 c81 -21 132 -50 195 -108 98 -93
143 -202 143 -347 0 -138 -42 -232 -150 -333 -99 -93 -253 -140 -383 -117
-146 25 -283 129 -349 265 -33 68 -34 74 -34 190 0 118 1 121 37 198 63 131
161 217 289 251 71 19 181 20 252 1z m1560 1 c201 -39 298 -139 334 -344 13
-71 14 -103 5 -177 -30 -239 -129 -368 -322 -416 -76 -19 -255 -17 -365 5
-177 35 -442 132 -655 240 -98 50 -124 68 -122 82 20 151 20 229 -3 315 -6 25
-2 28 97 72 266 118 541 200 773 230 71 9 189 6 258 -7z m-2080 -858 c26 -27
68 -60 93 -74 24 -14 44 -27 44 -29 0 -17 -117 -291 -172 -403 -150 -305 -347
-546 -512 -628 -75 -37 -85 -39 -171 -39 -82 0 -96 3 -159 34 -132 65 -281
243 -322 385 -89 312 250 624 926 852 l154 52 35 -51 c19 -29 57 -73 84 -99z
m1071 86 c659 -263 1001 -605 898 -897 -41 -116 -153 -242 -281 -317 -99 -57
-159 -73 -252 -68 -114 7 -189 46 -301 159 -168 168 -293 397 -419 764 l-58
170 42 26 c65 40 142 114 177 169 18 27 37 50 43 50 6 0 74 -25 151 -56z
m-742 -247 c74 -11 176 -2 231 19 18 7 35 -25 109 -211 236 -585 247 -1020 30
-1179 -188 -137 -585 -93 -717 80 -73 96 -103 239 -85 411 22 210 98 447 236
732 70 146 87 172 101 166 10 -3 53 -11 95 -18z"/>
</g>
</svg>
