<?xml version="1.0" standalone="no"?>
<!DOCTYPE svg PUBLIC "-//W3C//DTD SVG 20010904//EN"
 "http://www.w3.org/TR/2001/REC-SVG-20010904/DTD/svg10.dtd">
<svg version="1.0" xmlns="http://www.w3.org/2000/svg"
 width="392.000000pt" height="430.000000pt" viewBox="0 0 392.000000 430.000000"
 preserveAspectRatio="xMidYMid meet">

<g transform="translate(0.000000,430.000000) scale(0.100000,-0.100000)"
fill="#000000" stroke="none">
<path d="M1817 4284 c-281 -63 -484 -250 -562 -519 -28 -98 -36 -249 -17 -332
5 -24 9 -43 7 -43 -2 0 -22 16 -45 35 -63 53 -154 103 -239 133 -68 23 -91 26
-216 27 -120 0 -151 -3 -215 -23 -128 -41 -209 -89 -308 -185 -297 -284 -291
-768 11 -1054 71 -68 167 -129 233 -150 49 -15 72 -33 43 -33 -24 0 -137 -56
-194 -96 -123 -86 -217 -209 -269 -352 -148 -411 93 -861 516 -962 208 -50
438 -7 593 112 87 65 100 74 92 62 -4 -6 -11 -48 -16 -93 -29 -265 95 -534
313 -680 304 -203 681 -167 937 88 158 158 236 382 209 596 -5 43 -8 81 -5 83
3 3 18 -6 33 -19 79 -73 172 -120 296 -151 65 -17 100 -19 195 -15 129 5 200
22 294 67 399 195 538 694 297 1066 -78 118 -234 245 -346 281 -30 9 -54 20
-54 23 0 3 24 14 54 23 71 23 188 100 253 168 150 157 207 300 208 519 0 103
-4 138 -23 200 -67 213 -200 368 -397 461 -254 120 -581 78 -778 -100 l-40
-36 6 45 c18 130 18 160 3 249 -50 288 -250 512 -526 591 -100 28 -252 35
-343 14z m319 -1778 c208 -103 287 -366 167 -560 -113 -183 -328 -246 -517
-152 -88 43 -145 102 -190 196 -28 59 -31 74 -31 160 0 86 3 101 32 162 52
111 158 199 270 228 21 5 73 8 117 5 66 -3 91 -9 152 -39z"/>
</g>
</svg>
