<?xml version="1.0" standalone="no"?>
<!DOCTYPE svg PUBLIC "-//W3C//DTD SVG 20010904//EN"
 "http://www.w3.org/TR/2001/REC-SVG-20010904/DTD/svg10.dtd">
<svg version="1.0" xmlns="http://www.w3.org/2000/svg"
 width="202.000000pt" height="250.000000pt" viewBox="0 0 202.000000 250.000000"
 preserveAspectRatio="xMidYMid meet">

<g transform="translate(0.000000,250.000000) scale(0.100000,-0.100000)"
fill="#000000" stroke="none">
<path d="M982 2188 c-31 -39 -78 -151 -102 -245 -10 -38 -13 -42 -53 -49 -23
-4 -89 -8 -147 -8 -98 -1 -110 -3 -170 -33 -161 -80 -277 -223 -326 -403 -28
-101 -26 -302 5 -400 60 -193 164 -312 277 -315 38 -1 60 -8 86 -28 50 -39
101 -57 158 -57 31 0 66 -8 89 -19 88 -45 239 -51 338 -13 35 13 66 17 110 14
77 -5 146 16 201 63 28 25 50 35 74 35 112 0 264 177 313 365 36 137 15 344
-50 491 -69 156 -205 261 -388 300 -81 17 -181 18 -261 3 -67 -12 -95 0 -122
53 -22 42 -14 95 26 170 24 47 28 63 19 74 -14 17 -63 18 -77 2z"/>
</g>
</svg>
